<?xml version="1.0" encoding="utf-8"?>
<!-- Generator: Adobe Illustrator 17.1.0, SVG Export Plug-In . SVG Version: 6.00 Build 0)  -->
<!DOCTYPE svg PUBLIC "-//W3C//DTD SVG 1.1//EN" "http://www.w3.org/Graphics/SVG/1.1/DTD/svg11.dtd">
<svg version="1.1" id="Layer_1" xmlns="http://www.w3.org/2000/svg" xmlns:xlink="http://www.w3.org/1999/xlink" x="0px" y="0px"
	 viewBox="0 0 294.7 185" enable-background="new 0 0 294.7 185" xml:space="preserve">
<path d="M174.7,42.1c0,0.1-0.1,0.2-0.1,0.3c0.3,0.1,0.7,0.2,0.8,0.4c0.1-0.1,0,0,0.2-0.2c0.1-0.1,0,0,0.2-0.2
	c-0.2-0.2-0.4-0.4-0.5-0.5C175.1,42.1,174.9,42.1,174.7,42.1z M204.4,87.8c-0.1,0-0.1,0-0.2-0.1c-0.4,0.8-0.5,1.5-0.3,2.1
	c0,0.1,0.2,0.3,0.2,0.4c0,0.3-0.3,0.4-0.3,0.5c0,0.2,0.3,0.9,0.3,1c0,0,0,0.1,0,0.1l-0.2-0.1c0,0.1,0,0.2,0,0.4c0,0-0.2,0-0.2,0.2
	c0,0.2,0.1,0.7,0.1,0.9c0,0.6-0.3,1.1-0.3,1.7c0,0.5,0.6,0.9,0.2,1.6c-0.1,0.1-0.6,0.5-0.6,0.6c0.1,0.1,0.1,0.1,0.2,0.2
	c0,0.4-0.1,0.8-0.2,1c0.1,0,0.1,0,0.2,0.1c0,0-0.6,1-0.6,1.5c0,2.2-0.8,4.3-1.9,6.3c-0.1,0.2,0,0.3,0,0.4c-0.3,0.8-0.6,1.6-0.9,2.3
	c-0.7,0.9-2,1.1-3.1,1.4c-0.2,0-0.4,0.3-0.6,0.3c-0.4,0-0.7,0-1.1,0c-0.1,0.1-0.1,0.1-0.2,0.2c-1,0.3-2,0.3-2.9,0.6
	c-0.4,0.2-0.8,0.5-1.2,0.7c-0.3,0.1-0.5,0.2-0.8,0.3c0,0.1,0,0.1-0.1,0.2c-0.2,0.2-0.6,0.2-0.9,0.4c-0.3,0.2-0.3,0.5-0.6,0.8
	c-0.1,0-0.2,0-0.2,0c-0.2,0.3-0.4,0.7-0.6,1c-0.2,0.1-0.4,0.1-0.5,0.2c-0.1,0.2-0.1,0.4-0.2,0.6c0,0.1-0.4,0.1-0.4,0.2
	c-0.4,0.5-0.3,2-0.6,2.3c-0.3,0.4-0.9,0.4-1.3,1c-0.2,0.3,0.1,0.4-0.1,0.8c-0.1,0.2-0.4,0.6-0.5,1l0,0.2c-0.1,0.3-0.7,0.7-0.9,1
	c-0.2,0.5-0.4,0.9-0.6,1.4c-0.5,0.5-1.6,0.7-2,1.4c-0.1,0.1-0.3,0.3-0.3,0.6c0,0.1,0,0.7-0.2,1c-0.1,0.1-0.4,0.6-0.4,0.9
	c0,0.2,0.4,0.8,0.4,1c0,0-0.6,1.1-0.6,1.6c-0.1,2.3-1.1,3.4-2.4,4.9c-0.4,0.4-0.4,1.1-0.7,1.5c-0.3,0.3-1.4,0.7-1.8,0.7
	c-0.4,1.1-0.9,3-1.6,3.9c-0.5,0.6-1.3,1.2-1.9,1.8c-0.3,0.3-0.2,0.5-0.5,0.8c-0.1,0.1-0.4,0.2-0.4,0.2c0,0.1-0.1,0.2-0.1,0.3
	c-0.1,0-0.2,0-0.2,0c-0.3,0.3-0.5,0.6-0.9,0.9c-0.2,0.1-0.4,0.1-0.5,0.2c-0.3,0.2-0.5,0.5-0.8,0.6c-0.3,0.1-0.6,0-0.9,0.1
	c-0.3,0.2-0.7,0.4-1,0.6c-0.1,0-0.1,0-0.2-0.1c-0.2,0.1-0.4,0.2-0.6,0.3l-0.2-0.1c-0.1,0.1-0.2,0.2-0.3,0.3c-0.2,0-0.3,0-0.5,0
	c-0.1,0.1-0.2,0.2-0.3,0.3c-0.2,0-0.5,0-0.7,0c-0.1,0.1-0.2,0.2-0.3,0.3c-0.1,0-0.1,0-0.2-0.1c-0.5,0.3-1.1,0.7-1.6,1
	c-0.6,0.2-1.2,0.2-1.8,0.4c-0.3,0.2-0.6,0.4-0.9,0.5c-0.1,0-0.1,0-0.2-0.1c-0.2,0-0.4,0.2-0.6,0.3c-0.1,0-0.1,0-0.2-0.1
	c-0.3,0.1-0.7,0.4-1.1,0.5c-0.1,0-0.2-0.1-0.3-0.1c-0.1,0-0.3,0.2-0.4,0.2c-0.5,0.1-1,0-1.5,0.1c-0.4,0.1-0.9,0.4-1.4,0.4
	c-0.5-0.1-0.9-0.1-1.4-0.2c-0.8,0.1-1.5,0.6-2.3,0.7c-0.3-0.1-0.5-0.2-0.8-0.2c-0.8,0-1.9-0.1-2.7-0.1c-0.2-0.1-0.4-0.1-0.5-0.2
	c-0.8,0-2,0-2.8,0.2c-0.1,0-0.3,0.2-0.4,0.2c-0.3,0-0.7-0.1-1-0.1c-0.2,0-0.6,0.2-0.9,0.2c-0.4-0.1-0.8-0.3-1.2-0.4
	c-0.8,0-1.9-0.1-2.7-0.1c-0.6,0-1-0.5-1.4-0.7c-0.6-0.2-1.1-0.2-1.7-0.6c-0.8-0.5-1.6,0-2.2,0c-0.8,0-1.3-0.7-1.8-0.9
	c-0.2-0.1-0.6-0.1-1-0.2c-1.5-0.5-2.6-1-3.9-0.9c-0.1,0-0.4,0.2-0.5,0.2c-1-0.2-2-0.3-3-0.5c-0.2-0.1-0.7-0.5-0.9-0.6
	c-0.3-0.1-0.8,0-1.2-0.3c-0.6-0.4-0.9-1.1-1.3-1.6c-0.3-0.4-1.1-1-1.6-1.3c-0.7-0.3-1.4-0.7-2-1c-0.9-0.7-2.1-1.4-3-2l-1.7-0.8
	c-0.3-0.3-0.5-0.9-0.8-1.2c-0.2-0.1-0.4-0.1-0.6-0.2c-0.4-0.3-0.6-0.8-0.9-1.1c-0.1,0-0.2-0.1-0.3-0.1c-0.3-0.4-0.5-1-0.9-1.3
	c-0.6-0.5-1.5-0.7-2-1.2c-0.1-0.1-0.2-0.4-0.3-0.6c-0.1-0.1-0.3-0.2-0.4-0.2c-0.2-0.3-0.4-0.7-0.6-1l-0.2-0.1c0-0.1-0.1-0.3-0.1-0.4
	c-0.5-0.5-1.1-0.8-1.6-1.3c-0.6-0.6-1.2-1.4-1.8-2c-0.2-0.1-0.4-0.2-0.6-0.3c0-0.1-0.1-0.3-0.1-0.4c-0.3-0.5-0.7-0.8-1-1.3
	c-0.1-0.2-0.2-0.5-0.3-0.7c-0.1,0-0.1,0-0.2-0.1c-0.1-0.3-0.2-0.5-0.3-0.8c-0.1-0.2-0.4-0.4-0.5-0.5c0-0.1-0.1-0.3-0.1-0.4
	c-0.1,0-0.1,0-0.2-0.1c-0.2-0.5-0.5-1-0.7-1.5c-0.2-0.3-0.6-0.5-0.8-0.7c-0.3-0.4-0.3-0.9-0.4-1.3c-0.2-0.3-0.4-0.6-0.5-0.9
	c0-0.1,0-0.6,0-0.6c-0.1,0-0.2-0.1-0.3-0.1c0,0,0-0.1,0-0.1c-0.1-0.1-0.9-1.6-0.9-1.7c0-0.1,0.1-0.2,0.1-0.3c0-0.1-0.2-0.3-0.2-0.4
	c0-0.1,0-0.1,0.1-0.2l-0.2-0.1c-0.2-0.3-0.8-1.4-0.9-1.7c0-0.1,0-0.1,0.1-0.2c-0.1-0.2-0.3-0.4-0.4-0.6c0-0.1,0-0.1,0.1-0.2
	c-0.1-0.3-0.6-0.6-0.7-0.9c0-0.1,0-0.1,0.1-0.2c-0.1-0.1-0.2-0.2-0.3-0.3c-0.1-0.2,0-0.4,0-0.6c-0.1-0.2-0.3-0.5-0.4-0.7
	c0-0.1,0-0.1,0.1-0.2c-0.1-0.3-0.4-0.7-0.5-1.1c-0.1-0.4,0-0.9-0.2-1.4c-0.1-0.4-0.5-0.9-0.7-1.3c0-0.1,0-0.1,0.1-0.2
	c-0.1-0.3-0.4-0.7-0.5-1.1c0-0.2,0-0.5,0-0.7c0-0.2-0.3-0.4-0.3-0.6c-0.1-0.6,0.1-1.1,0.1-1.7c-0.1-0.7-0.6-1.4-0.6-2.1
	c0.1-0.4,0.2-0.9,0.3-1.3c0-0.2-0.3-0.6-0.3-0.9c0-0.4,0.1-0.6,0.1-0.9c-0.1-0.3-0.4-0.8-0.4-1.1c0-0.9,0.8-1.8,0.7-2.6
	c0-0.6-0.3-1.4-0.3-2c0.1-0.5,0.2-1,0.3-1.6c-0.1-0.8-0.3-1.6-0.2-2.6c0.3-0.9,0.5-1.9,0.8-2.8c0-0.6,0-1.4,0-1.9
	c0.2-0.5,0.4-0.9,0.6-1.4c0.1-1.4,0.6-3.5,1.2-4.6c0.1-0.5,0.3-1.1,0.4-1.6c0.2-0.3,0.3-0.7,0.5-1c0-0.2,0-0.4,0.1-0.7
	c0.1-0.1,0.1-0.2,0.2-0.3c0-0.1,0-0.9,0.1-1c0.6-1.2,1.5-2.4,2.2-3.5c0.2-0.6,0.5-1.2,0.7-1.8c0-0.1,0-0.2,0-0.2l0.3-0.1
	c0.2-0.3,0.3-0.6,0.5-0.9c0.2-0.2,0.6-0.5,0.8-0.8c0.4-0.5,0.4-1.2,0.8-1.7c0.2-0.3,0.7-0.4,0.9-0.7c0.1-0.2,0.2-0.4,0.3-0.6
	c0.4-0.4,0.8-1,1.2-1.5c0-0.1,0.1-0.3,0.1-0.4c0.4-0.4,1-0.8,1.4-1.3c0.1-0.4,0.3-0.8,0.4-1.2c0.2-0.3,0.7-0.6,0.9-0.9
	c0.3-0.3,0.6-1,0.8-1.4c0.5-0.8,0.5-1.9,1.1-2.6c0.1-0.1,0.4-0.2,0.5-0.3c0.6-0.6,1-1.1,1.6-1.6c0.1,0,0.2,0,0.2,0
	c0.4-0.3,0.6-0.8,0.9-1.1c0.6-0.5,1.4-0.9,2-1.4c0-0.1,0-0.1,0.1-0.2c0.2-0.2,0.6-0.4,0.9-0.5c0-0.1,0-0.1,0.1-0.2
	c0.5-0.4,1.4-0.6,2-1c0.1-0.2,0.3-0.4,0.4-0.6c0.3-0.1,0.6-0.3,1-0.4c0.5-0.4,0.8-0.9,1.3-1.2c0.4-0.3,1.1-0.3,1.6-0.4
	c0.4-0.2,0.8-0.5,1.2-0.7c0.1,0,0.1,0,0.2,0.1c0.5-0.1,1-0.4,1.5-0.5c0.4,0,0.6,0.1,1,0c0.2-0.1,0.3-0.3,0.5-0.4
	c0.5-0.2,0.9-0.4,1.4-0.6c0.5-0.3,1-0.8,1.5-0.9c0.1,0,0.1,0,0.2,0.1c0.3-0.2,0.6-0.4,0.9-0.5c0.4-0.1,1,0,1.5-0.1
	c0.4-0.3,0.9-0.5,1.3-0.8c0.1,0,0.2,0.1,0.3,0.1l0.3-0.1c0.7,0,1.4,0.1,2-0.1c0.3-0.2,0.7-0.4,1-0.6c0.2,0,0.4,0,0.6,0.1
	c0.2,0,0.5-0.2,0.7-0.3c0.5-0.1,1,0.2,1.5,0c0.5-0.3,1-0.6,1.5-0.8c0.3-0.1,0.6,0,1,0c0.7-0.1,1.6-0.3,2.3-0.5
	c0.1,0,0.2,0.1,0.3,0.1c0.2,0,0.5-0.3,0.7-0.4c0.3-0.1,0.6,0,1,0c0.4-0.1,0.8-0.5,1.1-0.6c0.1,0,0.2,0.1,0.3,0.1
	c0.2-0.1,0.3-0.2,0.5-0.3c0.4,0,0.7,0,1.1,0c0.4,0,0.9-0.3,1.3-0.3c0.3,0.1,0.7,0.1,1,0.2c0.8-0.1,1.8-0.5,2.7-0.6
	c0.9-0.1,1.7,0.2,2.6,0.1c0.4,0,0.9-0.3,1.3-0.3l1.3,0.3c0.5,0,1.2-0.2,1.7-0.2c0.4,0.1,0.8,0.2,1.2,0.3c0.2,0,0.8-0.1,1,0
	c0.5,0.1,2,1,2.4,1c1.4,0.1,3,0.4,4.2,1.1c0.5,0.2,1,0.3,1.5,0.5l0.3-0.1c0.4,0,0.6,0.4,0.8,0.5c0.3,0.2,0.6,0,0.8,0
	c0.4,0,0.6,0.4,0.8,0.5c0.7,0.3,1.4,0.5,2.1,0.8c0.2,0.1,0.5,0.6,0.9,0.6c0.8,0.1,1.3,0.1,1.6,0.1c0,0,0.1,0,0.1,0
	c0,0.1,0.1,0.3,0.1,0.4c0.2,0.2,0.5,0.2,0.7,0.5c0.1,0.1,0.2,0.5,0.4,0.6c0.4,0.3,1.1,0.3,1.4,0.4c0.2-0.2,0.1-0.3,0.5-0.3
	c0-0.1,0-0.1,0.1-0.2c-0.1-0.1-0.4-0.2-0.5-0.3c-0.1-0.2,0,0,0-0.2c0,0,0.1,0,0.1,0c0.3-0.2,0.3,0,0.9,0.3c-0.1,0.2-0.1,0.2-0.2,0.4
	c0.1,0.1,0.1,0.1,0.2,0.2c0,0,0,0.1,0,0.1c0.1,0.1,0.1,0,0.1-0.1c0.5,0,0.3-0.3,0.4-0.4c0.1-0.1,0.2,0.1,0.4-0.1
	c-0.3-0.3-0.6-0.9-0.8-1.1c-0.2-0.1-0.4-0.1-0.5-0.2c-0.7-0.5-1.9-1-2.6-1.5c-0.3-0.2-1.1-0.2-1.2-0.3c0-0.1-0.1-0.3-0.1-0.4
	c0,0-0.5-0.3-0.5-0.3c-0.4-0.3-1.1-0.2-1.4-0.3c-0.1,0-0.2-0.2-0.4-0.4c-0.4-0.3-1-0.2-1.3-0.4l-0.1-0.3c-0.4-0.3-1.1-0.4-1.3-0.5
	c-0.5-0.2-1.1-0.3-1.6-0.5c-0.2,0-0.6,0.2-0.9,0.1l-0.3-0.3c-0.5-0.3-0.9-0.3-1.1-0.5c-0.6-0.3-1.1,0-1.3-0.1l-0.3-0.3
	c-0.4-0.3-1.6-0.4-1.9-0.5c-1.1-0.6-3.3-0.8-4.6-0.9c-0.7-0.2-1.4-0.4-2.1-0.5c-1,0-2.5-0.3-3.5-0.3c-0.4-0.1-0.8-0.2-1.2-0.3
	c-0.6,0-1.3,0.2-1.9,0.2c-0.5-0.1-1-0.2-1.6-0.3c-2,0-4.1,0.1-6,0.5c-0.1,0-0.2-0.1-0.3-0.1c-0.2,0-0.7,0.2-0.9,0.2l-0.3-0.1
	c-0.8,0.1-1.6,0.4-2.3,0.5c-0.5,0.1-0.8-0.1-1.3-0.1c-0.3,0-0.8,0.1-1.1,0.2c-0.2,0.1-0.3,0.2-0.5,0.3c-0.2,0-0.4,0-0.6-0.1
	c-0.2,0-0.6,0.3-0.8,0.3c-0.4,0.1-0.7,0-1.1,0.1c-0.3,0.1-0.9,0.5-1.2,0.5c-0.2,0-0.5,0-0.7,0c-0.2,0.1-0.6,0.3-0.8,0.3
	c-0.5,0.1-0.9,0-1.4,0.2c-0.2,0.1-0.4,0.3-0.6,0.4c-0.1,0-0.1,0-0.2-0.1c-0.1,0.1-0.2,0.2-0.3,0.3c-0.1,0-0.1,0-0.2-0.1
	c-0.2,0-0.4,0.2-0.6,0.3c-0.1,0-0.1,0-0.2-0.1c-0.4,0.3-0.9,0.5-1.3,0.8c-1.8,0.6-3.3,1.4-5,2.2c-0.3,0.1-0.5,0.1-0.8,0.2
	c-0.6,0.2-1.1,0.7-1.6,1c-0.3,0.1-0.5,0.2-0.8,0.3c-0.5,0.4-0.8,0.8-1.3,1.1c-0.1,0-0.2,0-0.4,0c0,0.1,0,0.1-0.1,0.2
	c-0.3,0.1-0.6,0.3-1,0.4c0,0.1,0,0.1-0.1,0.2c-0.3,0.2-0.8,0.3-1.1,0.6c-0.6,0.6-1.2,1.1-1.7,1.7c-0.3,0.2-0.7,0.3-1,0.5
	c-0.2,0.1-0.2,0.3-0.4,0.5c-0.2,0.1-0.5,0.2-0.7,0.4c-0.1,0.1-0.2,0.3-0.2,0.4c-0.2,0.2-0.7,0.3-0.9,0.5c-0.1,0.2-0.3,0.4-0.4,0.6
	l-0.4,0.1c-0.3,0.3-0.5,0.6-0.8,0.9c-0.4,0.4-1,0.8-1.3,1.2c-0.1,0.2-0.2,0.4-0.3,0.6c-0.5,0.5-1.2,0.9-1.6,1.4
	c-0.2,0.4-0.4,0.7-0.6,1.1c-1,1.2-2.2,2.6-3.1,3.9c-0.1,0.2-0.1,0.4-0.2,0.5c-0.5,0.7-1,1.5-1.4,2.2c-0.1,0.3-0.3,0.6-0.4,0.9
	c-0.4,0.5-0.9,0.9-1.3,1.4c-0.5,1.1-0.9,2.2-1.4,3.2c-0.7,1-1.2,2.4-2,3.5c-0.5,1.5-1,2.9-1.5,4.4c-0.7,1.1-1.1,2.9-1.1,3.9
	c0,0.3-0.3,0.5-0.3,0.6c-0.4,0.6-0.3,1.3-0.3,1.7c-0.2,0.5-0.3,1.1-0.5,1.6c0,0.4-0.4,1.2-0.4,1.8c0,0.5-0.1,1.4-0.2,2
	c-0.1,0.4-0.2,0.7-0.3,1.1c0,0.8-0.1,1.6-0.1,2.5c-0.1,0.6-0.3,1.2-0.4,1.8c0,0.6,0.1,1.2,0.1,1.8c0,0.7-0.4,1.4-0.3,2.1
	c0.1,4.6,0.5,9.2,1.5,13.4c0,0.2,0,0.4-0.1,0.6c0.1,0.1,0.1,0.1,0.2,0.2c0,0.2,0,0.5,0,0.7c0.1,0.1,0.1,0.1,0.2,0.2
	c0.1,0.3,0,0.6,0,1c0.1,0.2,0.3,0.6,0.3,0.8c0,0.2,0,0.3,0,0.5c0.1,0.2,0.2,0.3,0.3,0.5c0.1,0.4,0,1,0.2,1.4
	c0.1,0.1,0.2,0.2,0.4,0.4c0.2,0.5,0.2,1.1,0.4,1.7l0.5,0.7c0,0.2,0,0.3,0,0.5c0.1,0.5,0.4,1,0.6,1.5c0,0.1,0,0.1-0.1,0.2
	c0.3,0.5,0.6,1,0.9,1.5c0.1,0.3,0,0.8,0.1,1.1c0.4,0.7,0.8,1.3,1.1,2c0.6,1.8,1.7,3.4,2.8,4.9c0.3,0.6,0.5,1.1,0.8,1.7
	c0.4,0.5,0.9,1.1,1.3,1.6c0.1,0.1,0.3,0.2,0.4,0.2c0,0.1,0.1,0.3,0.1,0.4c0.1,0.2,0.4,0.4,0.5,0.5c0.1,0.2,0.1,0.4,0.2,0.5
	c0.4,0.4,0.8,0.8,1.3,1.2c0.2,0.3,0.3,0.7,0.5,1c0.3,0.3,0.6,0.5,0.9,0.8c1,1.1,2,2.3,3.1,3.4c0.5,0.4,1,0.7,1.4,1.1
	c0,0.1,0.1,0.3,0.1,0.4c0.2,0.1,0.5,0.2,0.7,0.3c0.3,0.3,0.6,0.8,1,1c0.5,0.4,0.9,0.3,1.3,0.7c0.5,0.4,0.9,1.2,1.4,1.6
	c0.5,0.4,1.1,0.5,1.6,0.9c0.9,0.7,1.9,1.5,2.8,2.1c0.4,0.1,0.7,0.2,1.1,0.3c0.7,0.5,1.7,1,2.4,1.5c0.7,0.3,1.3,0.5,2,0.8
	c1,0.6,2.2,1.2,3.5,1.6c0.9,0.3,1.7,0.6,2.6,0.8c1.6,1.1,4,1.2,6.1,1.8c3.1,1,6.7,1.4,9.6,1.5c0.4,0.1,0.8,0.2,1.2,0.3
	c0.3,0,1-0.2,1.4-0.2c0.2,0.1,0.4,0.1,0.5,0.2c0.8,0,1.8,0.2,2.6,0.1c0.3,0,0.7-0.2,1-0.3c0.4,0,0.8,0.1,1.2,0
	c0.3-0.1,0.5-0.4,0.9-0.4c0.2,0.1,0.4,0.1,0.6,0.2c0.3,0,0.8,0.1,1.2,0c0.1,0,0.4-0.2,0.5-0.2c0.4,0,0.7,0,1.1,0
	c0.2-0.1,0.5-0.3,0.7-0.4c0.3,0,0.5,0.1,0.8,0.1c0.4,0,0.8-0.2,1.1-0.2c0.6,0,1.1,0.2,1.6,0.1c2.7-0.7,5.2-1.4,7.8-2.2
	c0.4-0.1,0.9-0.5,1.3-0.7c0.2-0.1,0.6-0.1,0.7-0.1c0.2-0.1,0.4-0.3,0.6-0.4c0.3-0.1,0.6,0,0.9-0.1c0.2-0.1,0.4-0.3,0.6-0.4
	c0.1,0,0.1,0,0.2,0.1c0.2-0.1,0.3-0.2,0.5-0.3c0.1,0,0.1,0,0.2,0.1c0.2-0.1,0.4-0.3,0.6-0.4c0.1,0,0.1,0,0.2,0.1
	c0.1-0.1,0.2-0.2,0.4-0.4c0.1,0,0.1,0,0.2,0.1c0.5-0.3,1-0.6,1.5-0.8c0.3-0.1,0.6-0.3,1-0.4c0-0.1,0-0.1,0.1-0.2
	c0.4-0.2,0.8-0.4,1.2-0.5c0.3-0.2,0.6-0.5,0.9-0.7c0.1,0,0.2,0,0.4,0c0.5-0.3,0.9-0.8,1.4-1.2c0.2-0.2,0.7-0.1,0.9-0.3
	c0.3-0.2,0.5-0.5,0.7-0.7c0.2-0.1,0.4-0.1,0.5-0.2c0.2-0.1,0.2-0.3,0.4-0.5c0.1,0,0.3-0.1,0.4-0.1c0-0.1,0-0.1,0.1-0.2
	c0.4-0.2,0.7-0.3,1.1-0.5c0.2-0.1,0.2-0.3,0.4-0.5c0.2-0.1,0.4-0.1,0.5-0.2c0.1-0.1,0.1-0.2,0.2-0.3c0.4-0.2,0.9-0.3,1.2-0.5
	c0.3-0.2,0.7-0.7,0.9-1c0-0.1,0.1-0.2,0.1-0.3c0.2-0.2,0.6-0.3,0.9-0.4c0.3-0.3,0.5-0.7,0.8-1c0.1,0,0.2,0,0.2,0
	c0.2-0.3,0.3-0.6,0.5-0.9l0.3-0.1c0.2-0.3,0.3-0.6,0.5-0.9c0.1-0.1,0.4-0.2,0.5-0.3c0.4-0.5,0.5-1.2,0.9-1.6l0.2,0
	c0.1-0.2,0.2-0.4,0.3-0.6c0.1-0.2,0.5-0.3,0.6-0.4c0-0.1,0.1-0.2,0.1-0.3c0.1,0,0.2,0,0.4,0c0.1-0.1,0.2-0.3,0.2-0.4
	c0.2-0.1,0.5-0.3,0.6-0.5c0.1-0.2,0.2-0.5,0.3-0.7c0.2-0.2,0.7-0.3,1-0.5c0.1-0.2,0.2-0.3,0.3-0.5c0.1-0.1,0.4-0.2,0.5-0.3
	c0.2-0.4,0.3-0.8,0.5-1.1c0.1-0.1,0.4-0.2,0.5-0.3c0.1-0.2,0-0.6,0.3-1c0.3-0.4,1-0.8,1.3-1.2c0.2-0.4,0.3-0.8,0.5-1.1l0.3-0.1
	c0.1-0.2,0-0.4,0-0.5c0.1,0,0.2,0,0.2,0c0.1-0.3,0.2-0.5,0.2-0.8c0.2-0.2,0.5-0.5,0.7-0.7c0.2-0.4,0.1-0.9,0.2-1
	c0.3-0.4,0.8-0.5,1.1-0.7c0.2-0.3,0.4-0.7,0.6-1c0.2-0.3,0.7-0.7,0.9-1c0.1-0.4,0.3-0.8,0.4-1.2c0.2-0.2,0.3-0.3,0.5-0.7l0.3-1
	c0.2-0.3,0.6-0.7,0.8-1c0.1-0.4,0.3-0.9,0.4-1.3c0.3-1.1,0.9-2.1,1-3c0.2-0.5,0.3-1,0.5-1.5c0-0.3,0-1.2,0.1-1.5
	c0.1-0.4,0.5-1.1,0.6-1.7c0-0.2,0-0.8,0-1.1c0-0.6,0.4-0.7,0.5-1.1c0.1-0.6,0.1-1.4,0.1-1.9c0.1-0.4,0.3-0.8,0.4-1.2
	c0-0.4,0-1.1,0-1.5c0.1-0.2,0.2-0.5,0.2-0.8c0-0.2-0.2-0.7-0.2-0.9c0.1-0.3,0.1-0.7,0.2-1c-0.1-0.2-0.3-0.4-0.4-0.6
	c0.1-0.4,0.2-0.7,0.3-1.1c0-0.1-0.2-0.4-0.2-0.5c0.1-0.4,0.2-0.8,0.3-1.2c0-0.5-0.4-1-0.5-1.5c0.2-0.4,0.3-0.9,0.2-1.2
	c-0.1-0.1-0.2-0.2-0.3-0.3c0.1-0.2,0.1-0.4,0.2-0.5c0-0.4-0.1-0.8-0.2-1.1C204.9,88,204.5,87.9,204.4,87.8z M168.1,37.2
	c-0.2,0.1-0.5,0-0.6-0.2C167.7,37.1,167.9,37.1,168.1,37.2z M204.1,83.6c0.1-0.4,0-0.5-0.2-0.8c-0.2,0.2-0.3,0.5-0.5,0.7
	c0.1,0.1,0.2,0.2,0.3,0.3C203.8,83.8,203.9,83.7,204.1,83.6z M204.1,78.5c0-0.2-0.2-0.4-0.3-0.6c-0.1-0.4,0-0.8-0.1-1.2
	c-0.1-0.5-0.4-1.1-0.6-1.6c-0.3-1-0.4-2-0.7-3c-0.2-0.5-0.6-1-0.8-1.6c-0.1-0.3,0-0.6-0.1-0.9c-0.1-0.2-0.3-0.3-0.4-0.5
	c-0.3-0.5-0.4-1.2-0.7-1.6c-0.1-0.1-0.2-0.1-0.3-0.2c0-0.2,0-0.3,0-0.5c-0.1-0.2-0.2-0.3-0.3-0.5c0-0.2,0-0.3,0-0.5
	c-0.2-0.6-0.7-1.1-1-1.6c-0.2-0.4-0.2-0.9-0.4-1.2c-0.1-0.2-0.4-0.4-0.5-0.5c-0.2-0.4-0.4-0.8-0.5-1.2l-0.2-0.1
	c-0.1-0.2-0.2-0.4-0.3-0.7l-0.2-0.1c-0.1-0.2-0.2-0.4-0.3-0.7c-0.1,0-0.1,0-0.2-0.1c-0.2-0.3-0.3-0.7-0.5-1l-0.2-0.1
	c-0.1-0.1-0.2-0.4-0.3-0.6c-0.1,0-0.1,0-0.2-0.1c0-0.1-0.1-0.3-0.1-0.4c-0.1,0-0.1,0-0.2-0.1l-0.1-0.4c-0.1-0.2-0.3-0.2-0.5-0.4
	c-0.1-0.2-0.2-0.5-0.4-0.7c-0.2-0.3-0.5-0.3-0.8-0.6c0-0.1,0-0.2,0-0.2c-0.6-0.6-1.3,0-1.3-1.1c-0.2-0.1-0.4-0.2-0.6-0.3
	c-0.2,0.1-0.4,0.1-0.5,0.2c0,0.1,0,0.1-0.1,0.2c0.1,0.1,0.2,0.3,0.2,0.4c0,0.1,0,0.1-0.1,0.2c0.1,0,0.1,0,0.2,0.1
	c0.3,0.7,0.6,1.3,0.9,2c0.1,0.2,0.3,0.2,0.5,0.4c0.3,0.4,0.3,1,0.6,1.5c0.1,0,0.1,0,0.2,0.1c0.1,0.2,0.1,0.4,0.2,0.5
	c0.1,0,0.1,0,0.2,0.1c0,0.1,0,0.2,0,0.4c0.1,0.1,0.4,0.3,0.5,0.4c0,0.1,0,0.1-0.1,0.2c0.1,0.2,0.2,0.3,0.3,0.5c0,0.1,0,0.1-0.1,0.2
	c0.1,0.4,0.5,1,0.6,1.4c0,0.2,0,0.3,0,0.5c0.1,0.3,0.2,0.5,0.2,0.9c0,0.1-0.1,0.3-0.1,0.4c0.1,1.2-0.1,2.8,0.3,3.9
	c0.2,0.5,0.6,0.8,0.9,1.2c0.2,0.3,0,0.8,0.3,1c0.3,0.4,0.9,0.4,1.4,0.8c0.2,0.2,0.6,0.6,0.8,0.8c0.4,0.3,1.3,0.6,1.6,0.9
	c0.1,0.1,0.2,0.5,0.4,0.7c0.1,0,0.1,0,0.2,0.1c0,0.1,0,0.1-0.1,0.2c0.1,0.1,0.2,0.1,0.3,0.2c0,0.1,0,0.1-0.1,0.2
	c0.1,0,0.1,0,0.2,0.1c0,0.1-0.1,0.2-0.1,0.3c0.1,0.4,0.5,0.8,0.6,1.1c0.4,1.3,0.4,2.5,2,2.8c-0.1,0.5-0.1,0.8-0.4,0.9
	c0,0.1,0,0.1-0.1,0.2c0.1,0,0.3,0.1,0.4,0.1c0.1,0.1,0,0.2,0.1,0.3c0,0.4-0.3,0.6-0.3,0.9c0,0.1,0.1,0.3,0.1,0.5
	c0.4,0.1,0.5,0,0.9-0.1c0.1-0.1,0.2-0.3,0.4-0.4c0.2-0.8-0.3-1-0.4-1.6C204,79.3,204,78.9,204.1,78.5z M204.6,86
	c-0.3,0.3-0.4,0.2-0.6,0.8c0.3,0.1,0.6,0.1,0.9,0.2c0-0.3-0.1-0.3,0-0.7C204.8,86.1,204.7,86,204.6,86z M179.2,44.8
	c0.1,0.2,1,0.4,1.2,0.4c0.5,0.4,0.4,1.2,1,1.6c0.2,0.2,0.5,0,0.8,0.1c0,0,0.4,0.2,0.4,0.2c0,0.1,0,0.2,0,0.2c0.3,0.2,0.6,0,0.8,0.1
	c0,0.1,0,0.2,0,0.4c0.1,0,0.2,0.1,0.3,0.1c0,0.1,0.1,0.3,0.1,0.4c0.1,0.1,0.4,0,0.4,0c0.4,0.1,0.1,0.4,0.6,0.1
	c0.2,0.4,0.3,0.9,0.4,1.1c0.2,0.4,0.5,0,0.9,0.3c0.2,0.2,0.3,0.6,0.5,0.7c0.4,0.3,0.6,0,1,0.3c0.1,0.1,0.1,0.5,0.1,0.6
	c0.1,0.1,0.3,0.3,0.6,0.4c0.2-0.1,0,0,0.2,0c0.4-1.3-0.4-0.9-0.8-1.3c0-0.1-0.2-0.2-0.1-0.3c0,0,0.1,0,0.1,0c0,0,0-0.1,0-0.1
	c0-0.1-0.9-1.3-1-1.4c-0.3-0.2-0.6-0.4-1-0.7c-0.1-0.1-0.3-0.5-0.4-0.6c-0.2-0.1-0.5-0.2-0.7-0.3c-0.1-0.1-0.2-0.4-0.3-0.6
	c-0.2-0.3-0.9-0.8-1.2-1c-0.4-0.2-0.9-0.4-1.3-0.7c-0.3-0.2-0.5-0.6-0.7-0.8c-0.2-0.2-0.8-0.3-0.9-0.3c0-0.1,0-0.2,0-0.2
	c-0.2-0.1-0.4-0.1-0.5-0.2c0,0.3,0.1,0.2,0.1,0.4c-0.2,0.3-0.2,0.2-0.2,0.5c-0.2-0.2-0.1-0.2-0.4-0.4c-0.1,0.1,0,0-0.1,0.1
	C179,44.6,178.9,44.5,179.2,44.8z"/>
<g>
	<path fill="#FFFFFF" d="M67,83.5c-1-1.7-2.3-2.5-4.3-2.5c-2.1,0-4.5,1.5-4.5,3.8c0,2.1,2.1,3.2,3.8,3.9l1.9,0.8
		c3.8,1.5,6.7,3.6,6.7,8.1c0,4.9-3.8,8.4-8.6,8.4c-4.4,0-7.8-3.2-8.3-7.6l3.4-0.7c0,3,2.3,5.1,5.2,5.1c2.9,0,5-2.4,5-5.3
		c0-2.9-2.3-4.2-4.7-5.1l-1.9-0.8c-3.1-1.3-5.9-3.1-5.9-6.8c0-4.4,3.9-7,8-7c3,0,5.5,1.5,6.9,4.1L67,83.5z"/>
	<path fill="#FFFFFF" d="M101.1,105.4h-3.4v-27h3.4V105.4z"/>
	<path fill="#FFFFFF" d="M145.2,105.4h-4.1l-8-11.4h-1.4v11.4h-3.4v-27h4.1c2.4,0,5,0,7.1,1.3c2.3,1.3,3.5,3.9,3.5,6.4
		c0,3.9-2.6,7.1-6.5,7.6L145.2,105.4z M131.8,91.1h1.1c3.4,0,7.2-0.6,7.2-4.9c0-4.2-4-4.8-7.3-4.8h-0.9V91.1z"/>
	<path fill="#FFFFFF" d="M179,98.3l8-20h3.7L179,106.8l-11.7-28.4h3.7L179,98.3z"/>
	<path fill="#FFFFFF" d="M241.6,91.9c0,8-6.3,14.1-14.1,14.1c-7.8,0-14.1-6.1-14.1-14.1c0-7.7,6.4-14.1,14.1-14.1
		C235.2,77.8,241.6,84.1,241.6,91.9z M238.2,91.9c0-5.9-4.4-10.9-10.8-10.9c-6.3,0-10.8,5-10.8,10.9c0,6.2,4.9,10.9,10.8,10.9
		C233.3,102.8,238.2,98,238.2,91.9z"/>
</g>
</svg>
